<svg xmlns="http://www.w3.org/2000/svg" width="26.216" height="31.758" viewBox="0 0 26.216 31.758">
  <path id="bell" d="M85.916,52.1a1.875,1.875,0,0,0-.455-1.243,1.7,1.7,0,0,0-.227-.191A3.869,3.869,0,0,1,84,49.305a19.256,19.256,0,0,1-1.991-8.9,9.7,9.7,0,0,0-2.735-6.594,9.4,9.4,0,0,0-4.591-2.684,2.861,2.861,0,1,0-3.759,0,9.4,9.4,0,0,0-4.591,2.685,9.7,9.7,0,0,0-2.735,6.6,18.315,18.315,0,0,1-2.181,9.19,3.465,3.465,0,0,1-1.006,1.076,1.611,1.611,0,0,0-.205.172A1.789,1.789,0,0,0,59.7,52.1a1.766,1.766,0,0,0,1.744,1.781h8.243a3.494,3.494,0,0,0-.091.776,3.213,3.213,0,0,0,6.425,0,3.489,3.489,0,0,0-.091-.772h8.242A1.766,1.766,0,0,0,85.916,52.1ZM72.808,27.029a1.936,1.936,0,1,1-1.927,1.936A1.936,1.936,0,0,1,72.808,27.029ZM60.635,52.1a.856.856,0,0,1,.238-.592.678.678,0,0,1,.086-.071,4.391,4.391,0,0,0,1.272-1.369,19.259,19.259,0,0,0,2.307-9.658,8.76,8.76,0,0,1,2.477-5.95,7.719,7.719,0,0,1,11.588,0A8.756,8.756,0,0,1,81.079,40.4a20.2,20.2,0,0,0,2.1,9.335,4.792,4.792,0,0,0,1.52,1.689.764.764,0,0,1,.1.086,1,1,0,0,1,.182.584.841.841,0,0,1-.809.846H61.444A.841.841,0,0,1,60.635,52.1ZM75.086,54.65a2.278,2.278,0,1,1-4.426-.772h4.3a2.239,2.239,0,0,1,.129.772Z" transform="translate(-59.7 -26.107)"/>
</svg>
