<svg id="chat" xmlns="http://www.w3.org/2000/svg" width="34" height="30.547" viewBox="0 0 34 30.547">
  <path id="Path_3" data-name="Path 3" d="M246.664,100a.664.664,0,1,0,.664.664A.664.664,0,0,0,246.664,100Zm0,0" transform="translate(-229.664 -93.359)"/>
  <path id="Path_4" data-name="Path 4" d="M80.664,261.328a.664.664,0,1,0-.664-.664A.664.664,0,0,0,80.664,261.328Zm0,0" transform="translate(-74.688 -242.734)"/>
  <path id="Path_5" data-name="Path 5" d="M22.313,0C16.334,0,11.427,4.122,11.048,9.314,5.354,9.6,0,13.7,0,19.258a9.279,9.279,0,0,0,2.59,6.351,4.039,4.039,0,0,1-1.067,3.8.664.664,0,0,0,.47,1.134A7.325,7.325,0,0,0,7.067,28.5a15.133,15.133,0,0,0,4.62.723c5.978,0,10.884-4.121,11.264-9.312a14.932,14.932,0,0,0,3.981-.708,7.325,7.325,0,0,0,5.075,2.051.664.664,0,0,0,.47-1.134,4.039,4.039,0,0,1-1.067-3.8A9.279,9.279,0,0,0,34,9.961C34,4.191,28.233,0,22.313,0ZM11.688,27.891a13.424,13.424,0,0,1-4.55-.784.664.664,0,0,0-.736.169,5.992,5.992,0,0,1-2.98,1.769,5.37,5.37,0,0,0,.4-3.952.663.663,0,0,0-.162-.281,7.98,7.98,0,0,1-2.336-5.553c0-4.68,4.744-8.633,10.359-8.633,5.3,0,9.961,3.687,9.961,8.633C21.648,24.018,17.18,27.891,11.688,27.891ZM30.335,15.514a.666.666,0,0,0-.162.281,5.37,5.37,0,0,0,.4,3.952,5.99,5.99,0,0,1-2.98-1.769.665.665,0,0,0-.736-.169,13.082,13.082,0,0,1-3.912.767,9.505,9.505,0,0,0-3.588-6.624h8.662a.664.664,0,0,0,0-1.328h-10.7a12.385,12.385,0,0,0-4.942-1.309c.382-4.46,4.691-7.988,9.933-7.988,5.615,0,10.359,3.953,10.359,8.633A7.98,7.98,0,0,1,30.335,15.514Zm0,0"/>
  <path id="Path_6" data-name="Path 6" d="M129.031,260h-8.367a.664.664,0,0,0,0,1.328h8.367a.664.664,0,0,0,0-1.328Zm0,0" transform="translate(-112.031 -242.734)"/>
  <path id="Path_7" data-name="Path 7" d="M91.688,320H80.664a.664.664,0,0,0,0,1.328H91.688a.664.664,0,0,0,0-1.328Zm0,0" transform="translate(-74.688 -298.75)"/>
  <path id="Path_8" data-name="Path 8" d="M295.031,100h-8.367a.664.664,0,0,0,0,1.328h8.367a.664.664,0,0,0,0-1.328Zm0,0" transform="translate(-267.008 -93.359)"/>
</svg>
