<svg xmlns="http://www.w3.org/2000/svg" width="37.563" height="40.035" viewBox="0 0 37.563 40.035">
  <g id="login" transform="translate(0 0.517)">
    <path id="Path_28" data-name="Path 28" d="M150.5,1.143v9.439a3.3,3.3,0,0,1,3.045.354l4.673,3.5a3.357,3.357,0,0,1,1.423,2.778,3.42,3.42,0,0,1-1.526,2.852l-4.466,3.354a3.307,3.307,0,0,1-3.148.427V31a1.142,1.142,0,0,0,1.143,1.143h10.283V8a3.446,3.446,0,0,1,1.537-2.859L170.315,0H151.643A1.142,1.142,0,0,0,150.5,1.143Zm0,0" transform="translate(-138.574)" fill="none" stroke="#29a766" stroke-width="1"/>
    <path id="Path_29" data-name="Path 29" d="M341.926,1.143A1.143,1.143,0,0,0,340.2.163l-9.141,6.855A1.142,1.142,0,0,0,330.5,8V37.858a1.143,1.143,0,0,0,1.731.98l9.141-6.855a1.143,1.143,0,0,0,.555-.98Zm-8,21.785a1.143,1.143,0,1,1,1.143-1.143A1.142,1.142,0,0,1,333.93,22.928Zm0,0" transform="translate(-304.863 0)" fill="none" stroke="#29a766" stroke-width="1"/>
    <path id="Path_30" data-name="Path 30" d="M1.643,172.857H11.926V174a1.142,1.142,0,0,0,1.776.951l4.57-3.428a1.142,1.142,0,0,0,0-1.9l-4.57-3.429a1.143,1.143,0,0,0-1.776.951v1.143H1.643A1.142,1.142,0,0,0,.5,169.429v2.285A1.142,1.142,0,0,0,1.643,172.857Zm0,0" transform="translate(0 -153.357)" fill="none" stroke="#29a766" stroke-width="1"/>
  </g>
</svg>
