<svg xmlns="http://www.w3.org/2000/svg" width="38.987" height="37.336" viewBox="0 0 38.987 37.336">
  <g id="login" transform="translate(0.5 0.168)">
    <path id="Path_31" data-name="Path 31" d="M25.187,221.477H1.239a1.239,1.239,0,1,1,0-2.477H25.187a1.239,1.239,0,1,1,0,2.477Zm0,0" transform="translate(0 -201.739)" fill="none" stroke="#29a766" stroke-width="1"/>
    <path id="Path_32" data-name="Path 32" d="M225.242,149.322a1.239,1.239,0,0,1-.876-2.116l5.731-5.731-5.731-5.731a1.239,1.239,0,0,1,1.753-1.753l6.606,6.607a1.239,1.239,0,0,1,0,1.752l-6.606,6.606A1.229,1.229,0,0,1,225.242,149.322Zm0,0" transform="translate(-206.662 -122.977)" fill="none" stroke="#29a766" stroke-width="1"/>
    <path id="Path_33" data-name="Path 33" d="M53.468,36.668A18.074,18.074,0,0,1,36.558,25.146a1.238,1.238,0,1,1,2.306-.9,15.691,15.691,0,1,0,0-11.482,1.238,1.238,0,1,1-2.306-.9A18.168,18.168,0,1,1,53.468,36.668Zm0,0" transform="translate(-33.648)" fill="none" stroke="#29a766" stroke-width="1"/>
  </g>
</svg>
