<svg id="menu" xmlns="http://www.w3.org/2000/svg" width="37.131" height="37.131" viewBox="0 0 37.131 37.131">
  <path id="Path_49" data-name="Path 49" d="M18.566,0A18.566,18.566,0,1,0,37.131,18.566,18.586,18.586,0,0,0,18.566,0Zm0,0" fill="#607d8b"/>
  <g id="Group_26" data-name="Group 26" transform="translate(10.83 10.83)">
    <path id="Path_50" data-name="Path 50" d="M163.256,323.094H150.879a1.547,1.547,0,1,1,0-3.094h12.377a1.547,1.547,0,1,1,0,3.094Zm0,0" transform="translate(-149.332 -307.623)" fill="#fafafa"/>
    <path id="Path_51" data-name="Path 51" d="M163.256,237.762H150.879a1.547,1.547,0,1,1,0-3.094h12.377a1.547,1.547,0,1,1,0,3.094Zm0,0" transform="translate(-149.332 -228.479)" fill="#fafafa"/>
    <path id="Path_52" data-name="Path 52" d="M163.256,152.426H150.879a1.547,1.547,0,1,1,0-3.094h12.377a1.547,1.547,0,1,1,0,3.094Zm0,0" transform="translate(-149.332 -149.332)" fill="#fafafa"/>
  </g>
</svg>
